#N canvas 188 69 878 543 10;
#X obj 748 235 dac~;
#X obj 179 202 r a;
#X obj 204 202 r d;
#X obj 229 202 r s;
#X obj 254 202 r r;
#X obj 105 202 r vel;
#X obj 142 202 r dur;
#X obj 108 382 r x;
#X obj 140 382 r y;
#X obj 140 404 * 100;
#X obj 108 426 / 5;
#X obj 108 404 - 50;
#X obj 115 502 throw~ out;
#X obj 748 19 catch~ out;
#X obj 36 182 catch~ input;
#X obj 141 426 r cutoff;
#X obj 237 63 bng 15 250 50 0 empty empty empty 17 7 0 10 -262144 -1
-1;
#X obj 346 260 throw~ input;
#N canvas 2 129 1184 594 oscreceive 0;
#X obj 74 134 unpack;
#X floatatom 11 263 5 0 0 0 - - -, f 5;
#X floatatom 73 264 5 0 0 0 - - -, f 5;
#X obj 11 281 s x;
#X obj 73 282 s y;
#X obj 279 441 tgl 15 0 empty empty empty 17 7 0 10 -262144 -1 -1 1
1;
#X obj 307 441 tgl 15 0 empty empty empty 17 7 0 10 -262144 -1 -1 1
1;
#X obj 334 441 tgl 15 0 empty empty empty 17 7 0 10 -262144 -1 -1 1
1;
#X obj 362 441 tgl 15 0 empty empty empty 17 7 0 10 -262144 -1 -1 1
1;
#X obj 389 441 tgl 15 0 empty empty empty 17 7 0 10 -262144 -1 -1 1
1;
#X obj 274 346 key;
#X floatatom 275 371 5 0 0 0 - - -, f 5;
#X obj 268 390 sel 118 98 110 109 44;
#X obj 275 463 s mute0;
#X obj 307 483 s mute1;
#X obj 334 463 s mute2;
#X obj 362 483 s mute3;
#X obj 389 463 s mute4;
#X obj 178 155 key;
#X floatatom 178 177 5 0 0 0 - - -, f 5;
#X obj 178 197 sel 49 50 51 52 53;
#X obj 338 334 s sample1;
#X obj 460 334 s sample5;
#X obj 427 354 s sample4;
#X obj 399 334 s sample3;
#X obj 366 354 s sample2;
#X obj 338 315 tgl 15 0 empty empty empty 17 7 0 10 -262144 -1 -1 0
1;
#X obj 366 315 tgl 15 0 empty empty empty 17 7 0 10 -262144 -1 -1 0
1;
#X obj 393 315 tgl 15 0 empty empty empty 17 7 0 10 -262144 -1 -1 0
1;
#X obj 421 315 tgl 15 0 empty empty empty 17 7 0 10 -262144 -1 -1 0
1;
#X obj 448 315 tgl 15 0 empty empty empty 17 7 0 10 -262144 -1 -1 0
1;
#X obj 344 225 key;
#X floatatom 344 247 5 0 0 0 - - -, f 5;
#X obj 344 271 sel 103 104 106 107 108;
#X obj 78 401 tgl 15 0 empty empty empty 17 7 0 10 -262144 -1 -1 1
1;
#X obj 105 401 tgl 15 0 empty empty empty 17 7 0 10 -262144 -1 -1 1
1;
#X obj 132 401 tgl 15 0 empty empty empty 17 7 0 10 -262144 -1 -1 1
1;
#X obj 160 401 tgl 15 0 empty empty empty 17 7 0 10 -262144 -1 -1 1
1;
#X obj 187 401 tgl 15 0 empty empty empty 17 7 0 10 -262144 -1 -1 1
1;
#X obj 105 445 s cicada1;
#X obj 132 423 s cicada2;
#X obj 166 445 s cicada3;
#X obj 193 423 s cicada4;
#X obj 78 376 sel 0 1 2 3 4;
#X obj 74 68 mrpeach/udpreceive 51200;
#X obj 276 413 sel 0 1 2 3 4 5;
#X obj 339 295 sel 0 1 2 3 4;
#X obj 78 28 import mrpeach;
#X obj 303 137 tgl 15 0 empty empty empty 17 7 0 10 -262144 -1 -1 0
1;
#X obj 303 157 s on_off;
#X obj 409 246 s vol;
#X floatatom 415 219 5 0 0 0 - - -, f 5;
#X obj 11 217 / 255;
#X obj 11 239 * 100;
#X obj 73 218 / 255;
#X obj 73 240 * 100;
#X obj 10 166 pack 0 100;
#X obj 10 188 line;
#X obj 82 165 pack 0 100;
#X obj 82 187 line;
#X obj 409 146 pack 0 100;
#X obj 409 168 line;
#X obj 409 190 / 100;
#X obj 184 377 loadbang;
#X msg 211 400 1;
#X obj 401 392 loadbang;
#X obj 74 112 routeOSC /pos /cicada /track /mute /sample /onoff /vol
;
#X obj 176 218 sel 0 1 2 3 4;
#X obj 133 242 bng 15 250 50 0 empty empty empty 17 7 0 10 -262144
-1 -1;
#X obj 158 242 bng 15 250 50 0 empty empty empty 17 7 0 10 -262144
-1 -1;
#X obj 183 242 bng 15 250 50 0 empty empty empty 17 7 0 10 -262144
-1 -1;
#X obj 209 242 bng 15 250 50 0 empty empty empty 17 7 0 10 -262144
-1 -1;
#X obj 237 242 bng 15 250 50 0 empty empty empty 17 7 0 10 -262144
-1 -1;
#X obj 133 263 s track0;
#X obj 158 285 s track1;
#X obj 188 263 s track2;
#X obj 213 285 s track3;
#X obj 243 263 s track4;
#X obj 71 423 s cicada0;
#X obj 81 310 key;
#X floatatom 81 332 5 0 0 0 - - -, f 5;
#X obj 81 352 sel 121 117 105 111 112;
#X obj 74 90 unpackOSC;
#X msg 401 415 1;
#X floatatom 251 153 5 0 0 0 - - -, f 5;
#X connect 0 0 56 0;
#X connect 0 1 58 0;
#X connect 1 0 3 0;
#X connect 2 0 4 0;
#X connect 5 0 13 0;
#X connect 6 0 14 0;
#X connect 7 0 15 0;
#X connect 8 0 16 0;
#X connect 9 0 17 0;
#X connect 10 0 11 0;
#X connect 11 0 12 0;
#X connect 12 0 5 0;
#X connect 12 1 6 0;
#X connect 12 2 7 0;
#X connect 12 3 8 0;
#X connect 12 4 9 0;
#X connect 18 0 19 0;
#X connect 19 0 20 0;
#X connect 20 0 68 0;
#X connect 20 1 69 0;
#X connect 20 2 70 0;
#X connect 20 3 71 0;
#X connect 20 4 72 0;
#X connect 26 0 21 0;
#X connect 27 0 25 0;
#X connect 28 0 24 0;
#X connect 29 0 23 0;
#X connect 30 0 22 0;
#X connect 31 0 32 0;
#X connect 32 0 33 0;
#X connect 33 0 26 0;
#X connect 33 1 27 0;
#X connect 33 2 28 0;
#X connect 33 3 29 0;
#X connect 33 4 30 0;
#X connect 34 0 78 0;
#X connect 35 0 39 0;
#X connect 36 0 40 0;
#X connect 37 0 41 0;
#X connect 38 0 42 0;
#X connect 43 0 34 0;
#X connect 43 1 35 0;
#X connect 43 2 36 0;
#X connect 43 3 37 0;
#X connect 43 4 38 0;
#X connect 44 0 82 0;
#X connect 45 0 5 0;
#X connect 45 1 6 0;
#X connect 45 2 7 0;
#X connect 45 3 8 0;
#X connect 45 4 9 0;
#X connect 46 0 26 0;
#X connect 46 1 27 0;
#X connect 46 2 28 0;
#X connect 46 3 29 0;
#X connect 46 4 30 0;
#X connect 48 0 49 0;
#X connect 51 0 50 0;
#X connect 52 0 53 0;
#X connect 53 0 1 0;
#X connect 54 0 55 0;
#X connect 55 0 2 0;
#X connect 56 0 57 0;
#X connect 57 0 52 0;
#X connect 58 0 59 0;
#X connect 59 0 54 0;
#X connect 60 0 61 0;
#X connect 61 0 62 0;
#X connect 62 0 51 0;
#X connect 63 0 64 0;
#X connect 64 0 34 0;
#X connect 64 0 35 0;
#X connect 64 0 36 0;
#X connect 64 0 37 0;
#X connect 64 0 38 0;
#X connect 65 0 83 0;
#X connect 66 0 0 0;
#X connect 66 1 43 0;
#X connect 66 2 67 0;
#X connect 66 3 84 0;
#X connect 66 3 45 0;
#X connect 66 4 46 0;
#X connect 66 5 48 0;
#X connect 66 6 60 0;
#X connect 67 0 68 0;
#X connect 67 1 69 0;
#X connect 67 2 70 0;
#X connect 67 3 71 0;
#X connect 67 4 72 0;
#X connect 68 0 73 0;
#X connect 69 0 74 0;
#X connect 70 0 75 0;
#X connect 71 0 76 0;
#X connect 72 0 77 0;
#X connect 79 0 80 0;
#X connect 80 0 81 0;
#X connect 81 0 34 0;
#X connect 81 1 35 0;
#X connect 81 2 36 0;
#X connect 81 3 37 0;
#X connect 81 4 38 0;
#X connect 82 0 66 0;
#X connect 83 0 9 0;
#X connect 83 0 8 0;
#X connect 83 0 7 0;
#X connect 83 0 6 0;
#X connect 83 0 5 0;
#X restore 176 13 pd oscreceive;
#N canvas 908 319 450 300 setup 0;
#X obj 92 118 key;
#X floatatom 92 140 5 0 0 0 - - -, f 5;
#X obj 93 216 send on_off;
#X obj 92 159 sel 32;
#X obj 179 22 loadbang;
#X msg 110 64 \; pd dsp \$1;
#X obj 110 22 loadbang;
#X obj 110 44 tgl 15 0 empty empty empty 17 7 0 10 -262144 -1 -1 1
1;
#X msg 179 44 \; vel 600 \; dur 300 \; a 3 \; d 100 \; s 10 \; r 0
\; cutoff 10000 \;;
#X connect 0 0 1 0;
#X connect 1 0 3 0;
#X connect 3 0 2 0;
#X connect 4 0 8 0;
#X connect 6 0 7 0;
#X connect 7 0 5 0;
#X restore 120 13 pd setup;
#X obj 235 38 r on_off;
#X obj 747 41 units/output;
#X obj 347 73 units/input_control;
#X obj 36 222 units/slider_adsr_vol;
#X obj 36 38 units/clockdevide;
#X obj 36 11 units/bpm2msec;
#X obj 36 382 units/harmonizer;
#N canvas 58 175 617 305 cicadas 0;
#X obj 69 26 adc~;
#X obj 69 47 +~;
#X obj 125 22 loadbang;
#X obj 215 22 loadbang;
#X obj 324 22 loadbang;
#X obj 447 21 loadbang;
#X obj 206 160 r cicada1;
#X obj 269 160 r cicada2;
#X obj 332 160 r cicada3;
#X obj 394 160 r cicada4;
#X obj 143 160 r cicada0;
#X obj 125 83 units/cicada;
#X obj 215 83 units/cicada;
#X obj 324 83 units/cicada;
#X obj 447 82 units/cicada;
#X obj 305 126 units/mute;
#X obj 243 126 units/mute;
#X obj 180 126 units/mute;
#X obj 117 126 units/mute;
#X obj 54 126 units/mute;
#X msg 125 49 ../sound/min.wav;
#X msg 215 49 ../sound/tsuku.wav;
#X msg 324 49 ../sound/cicadas1.wav;
#X msg 447 48 ../sound/cicadas2.wav;
#X obj 89 191 outlet~;
#X obj 140 187 outlet~;
#X obj 37 238 outlet~;
#X obj 257 189 outlet~;
#X obj 199 188 outlet~;
#X text 53 108 cicada0;
#X text 119 108 cicada1;
#X text 306 108 cicada4;
#X text 242 108 cicada3;
#X text 180 108 cicada2;
#X obj 53 166 *~ 2;
#X connect 0 0 1 0;
#X connect 0 1 1 1;
#X connect 1 0 19 0;
#X connect 2 0 20 0;
#X connect 3 0 21 0;
#X connect 4 0 22 0;
#X connect 5 0 23 0;
#X connect 6 0 18 1;
#X connect 7 0 17 1;
#X connect 8 0 16 1;
#X connect 9 0 15 1;
#X connect 10 0 19 1;
#X connect 11 0 18 0;
#X connect 12 0 17 0;
#X connect 13 0 16 0;
#X connect 14 0 15 0;
#X connect 15 0 27 0;
#X connect 16 0 28 0;
#X connect 17 0 25 0;
#X connect 18 0 24 0;
#X connect 19 0 34 0;
#X connect 20 0 11 0;
#X connect 21 0 12 0;
#X connect 22 0 13 0;
#X connect 23 0 14 0;
#X connect 34 0 26 0;
#X coords 0 -1 1 1 320 50 2 50 100;
#X restore 293 13 pd cicadas;
#N canvas 548 88 450 300 cutoff 0;
#X obj 87 35 inlet~;
#X obj 87 198 outlet~;
#X obj 106 114 hsl 128 15 0 10000 0 0 empty empty cutoff -2 -8 0 10
-262144 -1 -1 12700 1;
#X floatatom 103 134 5 0 0 0 - - -, f 5;
#X obj 103 72 inlet;
#X obj 86 168 lores~;
#X connect 0 0 5 0;
#X connect 2 0 3 0;
#X connect 3 0 5 1;
#X connect 4 0 2 0;
#X connect 5 0 1 0;
#X coords 0 -1 1 1 140 50 2 100 100;
#X restore 36 446 pd cutoff;
#N canvas 420 133 647 486 loopers 0;
#X obj 114 37 bng 15 250 50 0 empty empty empty 17 7 0 10 -262144 -1
-1;
#X obj 160 36 bng 15 250 50 0 empty empty empty 17 7 0 10 -262144 -1
-1;
#X obj 206 36 bng 15 250 50 0 empty empty empty 17 7 0 10 -262144 -1
-1;
#X obj 250 36 bng 15 250 50 0 empty empty empty 17 7 0 10 -262144 -1
-1;
#X obj 302 36 bng 15 250 50 0 empty empty empty 17 7 0 10 -262144 -1
-1;
#X obj 39 18 inlet~;
#X obj 93 379 throw~ out;
#X obj 49 81 r track0;
#X obj 52 60 r mute0;
#X obj 194 82 r track1;
#X obj 200 62 r mute1;
#X obj 280 60 r mute2;
#X obj 277 81 r track2;
#X obj 427 81 r track3;
#X obj 426 60 r mute3;
#X obj 540 60 r mute4;
#X obj 541 81 r track4;
#X obj 114 14 r c4;
#X obj 160 14 r c8;
#X obj 206 14 r c16;
#X obj 250 14 r c32;
#X obj 302 14 r c64;
#N canvas 366 176 450 300 loop1 0;
#X obj 17 36 inlet~;
#N canvas 0 22 450 278 (subpatch) 0;
#X array track0 22050 float 0;
#X coords 0 1 22049 -1 100 70 1 0 0;
#X restore 280 118 graph;
#X obj 209 50 inlet;
#X obj 64 105 gate;
#X obj 41 96 tgl 15 0 empty empty empty 17 7 0 10 -262144 -1 -1 0 1
;
#X obj 56 160 bng 15 250 50 0 empty empty empty 17 7 0 10 -262144 -1
-1;
#X obj 167 152 gate;
#X obj 152 175 bng 15 250 50 0 empty empty empty 17 7 0 10 -262144
-1 -1;
#X obj 129 164 tgl 15 0 empty empty empty 17 7 0 10 -262144 -1 -1 0
1;
#X obj 96 30 t b b;
#X obj 229 221 outlet~;
#X obj 350 103 bng 15 250 50 0 empty empty empty 17 7 0 10 -262144
-1 -1;
#X obj 228 148 spigot;
#X obj 365 102 tgl 15 0 empty empty empty 17 7 0 10 -262144 -1 -1 1
1;
#X obj 308 72 inlet;
#X obj 364 74 inlet;
#X obj 64 127 t b b;
#X obj 229 199 tabplay~ track0;
#X obj 32 225 tabwrite~ track0;
#X connect 0 0 18 0;
#X connect 2 0 9 0;
#X connect 2 0 12 0;
#X connect 3 0 16 0;
#X connect 4 0 3 0;
#X connect 5 0 4 0;
#X connect 5 0 18 0;
#X connect 6 0 7 0;
#X connect 7 0 8 0;
#X connect 7 0 17 0;
#X connect 8 0 6 0;
#X connect 9 0 3 1;
#X connect 9 1 6 1;
#X connect 11 0 4 0;
#X connect 12 0 17 0;
#X connect 13 0 12 1;
#X connect 14 0 11 0;
#X connect 15 0 13 0;
#X connect 16 0 5 0;
#X connect 16 1 8 0;
#X connect 17 0 10 0;
#X coords 0 -1 1 1 100 90 2 280 100;
#X restore 35 105 pd loop1;
#N canvas 666 184 450 300 loop1 0;
#X obj 17 36 inlet~;
#N canvas 0 22 450 278 (subpatch) 0;
#X array track1 44100 float 0;
#X coords 0 1 44099 -1 100 70 1 0 0;
#X restore 280 118 graph;
#X obj 209 50 inlet;
#X obj 64 105 gate;
#X obj 41 96 tgl 15 0 empty empty empty 17 7 0 10 -262144 -1 -1 0 1
;
#X obj 56 160 bng 15 250 50 0 empty empty empty 17 7 0 10 -262144 -1
-1;
#X obj 167 152 gate;
#X obj 152 175 bng 15 250 50 0 empty empty empty 17 7 0 10 -262144
-1 -1;
#X obj 129 164 tgl 15 0 empty empty empty 17 7 0 10 -262144 -1 -1 0
1;
#X obj 96 31 t b b;
#X obj 229 221 outlet~;
#X obj 350 103 bng 15 250 50 0 empty empty empty 17 7 0 10 -262144
-1 -1;
#X obj 228 148 spigot;
#X obj 365 102 tgl 15 0 empty empty empty 17 7 0 10 -262144 -1 -1 1
1;
#X obj 308 72 inlet;
#X obj 364 74 inlet;
#X obj 64 127 t b b;
#X obj 229 199 tabplay~ track1;
#X obj 32 225 tabwrite~ track1;
#X connect 0 0 18 0;
#X connect 2 0 9 0;
#X connect 2 0 12 0;
#X connect 3 0 16 0;
#X connect 4 0 3 0;
#X connect 5 0 4 0;
#X connect 5 0 18 0;
#X connect 6 0 7 0;
#X connect 7 0 8 0;
#X connect 7 0 17 0;
#X connect 8 0 6 0;
#X connect 9 0 3 1;
#X connect 9 1 6 1;
#X connect 11 0 4 0;
#X connect 12 0 17 0;
#X connect 13 0 12 1;
#X connect 14 0 11 0;
#X connect 15 0 13 0;
#X connect 16 0 5 0;
#X connect 16 1 8 0;
#X connect 17 0 10 0;
#X coords 0 -1 1 1 100 90 2 280 100;
#X restore 138 105 pd loop1;
#N canvas 367 168 450 300 loop1 0;
#X obj 17 36 inlet~;
#N canvas 0 22 450 278 (subpatch) 0;
#X array track2 88200 float 0;
#X coords 0 1 88199 -1 100 70 1 0 0;
#X restore 280 118 graph;
#X obj 209 50 inlet;
#X obj 64 105 gate;
#X obj 41 96 tgl 15 0 empty empty empty 17 7 0 10 -262144 -1 -1 0 1
;
#X obj 56 160 bng 15 250 50 0 empty empty empty 17 7 0 10 -262144 -1
-1;
#X obj 167 152 gate;
#X obj 152 175 bng 15 250 50 0 empty empty empty 17 7 0 10 -262144
-1 -1;
#X obj 129 164 tgl 15 0 empty empty empty 17 7 0 10 -262144 -1 -1 0
1;
#X obj 96 30 t b b;
#X obj 229 221 outlet~;
#X obj 350 103 bng 15 250 50 0 empty empty empty 17 7 0 10 -262144
-1 -1;
#X obj 228 148 spigot;
#X obj 365 102 tgl 15 0 empty empty empty 17 7 0 10 -262144 -1 -1 1
1;
#X obj 308 72 inlet;
#X obj 364 74 inlet;
#X obj 64 127 t b b;
#X obj 230 199 tabplay~ track2;
#X obj 32 225 tabwrite~ track2;
#X connect 0 0 18 0;
#X connect 2 0 9 0;
#X connect 2 0 12 0;
#X connect 3 0 16 0;
#X connect 4 0 3 0;
#X connect 5 0 4 0;
#X connect 5 0 18 0;
#X connect 6 0 7 0;
#X connect 7 0 8 0;
#X connect 7 0 17 0;
#X connect 8 0 6 0;
#X connect 9 0 3 1;
#X connect 9 1 6 1;
#X connect 11 0 4 0;
#X connect 12 0 17 0;
#X connect 13 0 12 1;
#X connect 14 0 11 0;
#X connect 15 0 13 0;
#X connect 16 0 5 0;
#X connect 16 1 8 0;
#X connect 17 0 10 0;
#X coords 0 -1 1 1 100 90 2 280 100;
#X restore 241 105 pd loop1;
#N canvas 471 165 450 300 loop1 0;
#X obj 17 36 inlet~;
#N canvas 0 22 450 278 (subpatch) 0;
#X array track3 176400 float 0;
#X coords 0 1 176399 -1 100 70 1 0 0;
#X restore 280 118 graph;
#X obj 209 50 inlet;
#X obj 64 105 gate;
#X obj 41 96 tgl 15 0 empty empty empty 17 7 0 10 -262144 -1 -1 0 1
;
#X obj 56 160 bng 15 250 50 0 empty empty empty 17 7 0 10 -262144 -1
-1;
#X obj 167 152 gate;
#X obj 152 175 bng 15 250 50 0 empty empty empty 17 7 0 10 -262144
-1 -1;
#X obj 129 164 tgl 15 0 empty empty empty 17 7 0 10 -262144 -1 -1 0
1;
#X obj 96 30 t b b;
#X obj 229 221 outlet~;
#X obj 350 103 bng 15 250 50 0 empty empty empty 17 7 0 10 -262144
-1 -1;
#X obj 228 148 spigot;
#X obj 365 102 tgl 15 0 empty empty empty 17 7 0 10 -262144 -1 -1 1
1;
#X obj 308 72 inlet;
#X obj 364 74 inlet;
#X obj 64 127 t b b;
#X obj 229 199 tabplay~ track3;
#X obj 34 225 tabwrite~ track3;
#X connect 0 0 18 0;
#X connect 2 0 9 0;
#X connect 2 0 12 0;
#X connect 3 0 16 0;
#X connect 4 0 3 0;
#X connect 5 0 4 0;
#X connect 5 0 18 0;
#X connect 6 0 7 0;
#X connect 7 0 8 0;
#X connect 7 0 17 0;
#X connect 8 0 6 0;
#X connect 9 0 3 1;
#X connect 9 1 6 1;
#X connect 11 0 4 0;
#X connect 12 0 17 0;
#X connect 13 0 12 1;
#X connect 14 0 11 0;
#X connect 15 0 13 0;
#X connect 16 0 5 0;
#X connect 16 1 8 0;
#X connect 17 0 10 0;
#X coords 0 -1 1 1 100 90 2 280 100;
#X restore 344 105 pd loop1;
#N canvas 530 297 450 300 loop1 0;
#X obj 17 36 inlet~;
#N canvas 0 22 450 278 (subpatch) 0;
#X array track4 352800 float 0;
#X coords 0 1 352799 -1 100 70 1 0 0;
#X restore 280 118 graph;
#X obj 209 50 inlet;
#X obj 64 105 gate;
#X obj 41 96 tgl 15 0 empty empty empty 17 7 0 10 -262144 -1 -1 0 1
;
#X obj 56 160 bng 15 250 50 0 empty empty empty 17 7 0 10 -262144 -1
-1;
#X obj 167 152 gate;
#X obj 152 175 bng 15 250 50 0 empty empty empty 17 7 0 10 -262144
-1 -1;
#X obj 129 164 tgl 15 0 empty empty empty 17 7 0 10 -262144 -1 -1 0
1;
#X obj 96 30 t b b;
#X obj 229 221 outlet~;
#X obj 350 103 bng 15 250 50 0 empty empty empty 17 7 0 10 -262144
-1 -1;
#X obj 228 148 spigot;
#X obj 365 102 tgl 15 0 empty empty empty 17 7 0 10 -262144 -1 -1 1
1;
#X obj 308 72 inlet;
#X obj 364 74 inlet;
#X obj 64 127 t b b;
#X obj 32 225 tabwrite~ track4;
#X obj 204 197 tabplay~ track4;
#X connect 0 0 17 0;
#X connect 2 0 9 0;
#X connect 2 0 12 0;
#X connect 3 0 16 0;
#X connect 4 0 3 0;
#X connect 5 0 4 0;
#X connect 5 0 17 0;
#X connect 6 0 7 0;
#X connect 7 0 8 0;
#X connect 7 0 18 0;
#X connect 8 0 6 0;
#X connect 9 0 3 1;
#X connect 9 1 6 1;
#X connect 11 0 4 0;
#X connect 12 0 18 0;
#X connect 13 0 12 1;
#X connect 14 0 11 0;
#X connect 15 0 13 0;
#X connect 16 0 5 0;
#X connect 16 1 8 0;
#X connect 18 0 10 0;
#X coords 0 -1 1 1 100 90 2 280 100;
#X restore 447 105 pd loop1;
#X connect 0 0 22 1;
#X connect 1 0 23 1;
#X connect 2 0 24 1;
#X connect 3 0 25 1;
#X connect 4 0 26 1;
#X connect 5 0 22 0;
#X connect 5 0 23 0;
#X connect 5 0 24 0;
#X connect 5 0 25 0;
#X connect 5 0 26 0;
#X connect 7 0 22 2;
#X connect 8 0 22 3;
#X connect 9 0 23 2;
#X connect 10 0 23 3;
#X connect 11 0 24 3;
#X connect 12 0 24 2;
#X connect 13 0 25 2;
#X connect 14 0 25 3;
#X connect 15 0 26 3;
#X connect 16 0 26 2;
#X connect 17 0 0 0;
#X connect 18 0 1 0;
#X connect 19 0 2 0;
#X connect 20 0 3 0;
#X connect 21 0 4 0;
#X connect 22 0 6 0;
#X connect 23 0 6 0;
#X connect 24 0 6 0;
#X connect 25 0 6 0;
#X coords 0 -1 1 1 570 100 2 30 100;
#X restore 282 283 pd loopers;
#X obj 36 83 s c1;
#X obj 67 83 s c2;
#X obj 98 83 s c4;
#X obj 130 83 s c8;
#X obj 161 83 s c16;
#X obj 198 83 s c32;
#X obj 235 83 s c64;
#X obj 69 202 r c1;
#N canvas 75 97 976 464 samples 0;
#X obj 215 77 spigot;
#X obj 215 102 tgl 15 0 empty empty empty 17 7 0 10 -262144 -1 -1 0
1;
#X obj 215 234 throw~ out;
#X obj 102 77 spigot;
#X obj 102 103 tgl 15 0 empty empty empty 17 7 0 10 -262144 -1 -1 0
1;
#X obj 102 234 throw~ out;
#X obj 329 77 spigot;
#X obj 329 102 tgl 15 0 empty empty empty 17 7 0 10 -262144 -1 -1 0
1;
#X obj 329 234 throw~ out;
#X obj 381 77 r sample3;
#X obj 152 76 r sample1;
#X obj 267 78 r sample2;
#X obj 443 77 spigot;
#X obj 443 102 tgl 15 0 empty empty empty 17 7 0 10 -262144 -1 -1 0
1;
#X obj 443 234 throw~ out;
#X obj 557 77 spigot;
#X obj 557 102 tgl 15 0 empty empty empty 17 7 0 10 -262144 -1 -1 0
1;
#X obj 557 234 throw~ out;
#X obj 495 77 r sample4;
#X obj 609 77 r sample5;
#X obj 217 43 bng 15 250 50 0 empty empty empty 17 7 0 10 -262144 -1
-1;
#N canvas 441 549 898 118 loadsamples 0;
#X obj 222 34 loadbang;
#X obj 42 34 loadbang;
#X obj 383 34 loadbang;
#X obj 544 34 loadbang;
#X obj 699 34 loadbang;
#X obj 42 80 outlet;
#X obj 222 80 outlet;
#X obj 383 80 outlet;
#X obj 544 80 outlet;
#X obj 699 80 outlet;
#X msg 383 58 ../sound/beat2.wav;
#X msg 222 58 ../sound/beat1.wav;
#X msg 544 58 ../sound/bass.wav;
#X msg 42 58 ../sound/808_kick.wav;
#X msg 699 58 ../sound/bass2.wav;
#X connect 0 0 11 0;
#X connect 1 0 13 0;
#X connect 2 0 10 0;
#X connect 3 0 12 0;
#X connect 4 0 14 0;
#X connect 10 0 7 0;
#X connect 11 0 6 0;
#X connect 12 0 8 0;
#X connect 13 0 5 0;
#X connect 14 0 9 0;
#X restore 584 34 pd loadsamples;
#X obj 102 117 units/loops;
#X obj 215 117 units/loops;
#X obj 329 117 units/loops;
#X obj 443 117 units/loops;
#X obj 557 117 units/loops;
#X obj 102 54 r c4;
#X obj 217 21 r c32;
#X connect 0 0 23 0;
#X connect 1 0 0 1;
#X connect 3 0 22 0;
#X connect 4 0 3 1;
#X connect 6 0 24 0;
#X connect 7 0 6 1;
#X connect 9 0 7 0;
#X connect 10 0 4 0;
#X connect 11 0 1 0;
#X connect 12 0 25 0;
#X connect 13 0 12 1;
#X connect 15 0 26 0;
#X connect 16 0 15 1;
#X connect 18 0 13 0;
#X connect 19 0 16 0;
#X connect 20 0 0 0;
#X connect 20 0 6 0;
#X connect 20 0 12 0;
#X connect 20 0 15 0;
#X connect 21 0 22 1;
#X connect 21 1 23 1;
#X connect 21 2 24 1;
#X connect 21 3 25 1;
#X connect 21 4 26 1;
#X connect 22 0 5 0;
#X connect 23 0 2 0;
#X connect 24 0 8 0;
#X connect 25 0 14 0;
#X connect 26 0 17 0;
#X connect 27 0 3 0;
#X connect 28 0 20 0;
#X coords 0 -1 1 1 570 130 2 100 100;
#X restore 282 390 pd samples;
#N canvas 311 150 450 300 serial 0;
#X msg 170 228 close;
#X obj 103 103 bng 15 250 50 0 empty empty empty 17 7 0 10 -262144
-1 -1;
#X msg 49 172 1;
#X obj 99 258 comport 0 9600;
#X msg 99 207 open \$1;
#X obj 92 76 r c4;
#X msg 98 171 0;
#X msg 128 171 1;
#X msg 158 171 2;
#X msg 188 171 3;
#X obj 134 142 bng 15 250 50 0 empty empty 0 0 -8 0 10 -262144 -1 -1
;
#X obj 156 142 bng 15 250 50 0 empty empty 1 0 -8 0 10 -262144 -1 -1
;
#X obj 178 142 bng 15 250 50 0 empty empty 2 0 -8 0 10 -262144 -1 -1
;
#X obj 200 142 bng 15 250 50 0 empty empty 3 0 -8 0 10 -262144 -1 -1
;
#X obj 124 103 bng 15 250 50 0 empty empty close 17 7 0 10 -262144
-1 -1;
#X text 102 140 open;
#X connect 0 0 3 0;
#X connect 1 0 2 0;
#X connect 2 0 3 0;
#X connect 4 0 3 0;
#X connect 5 0 1 0;
#X connect 6 0 4 0;
#X connect 7 0 4 0;
#X connect 8 0 4 0;
#X connect 9 0 4 0;
#X connect 10 0 6 0;
#X connect 11 0 7 0;
#X connect 12 0 8 0;
#X connect 13 0 9 0;
#X coords 0 -1 1 1 120 60 2 100 100;
#X restore 36 114 pd serial;
#X obj 36 502 send~ loopin;
#X obj 282 260 r~ loopin;
#X obj 293 73 units/input_control;
#X connect 1 0 23 4;
#X connect 2 0 23 5;
#X connect 3 0 23 6;
#X connect 4 0 23 7;
#X connect 5 0 23 2;
#X connect 6 0 23 3;
#X connect 7 0 11 0;
#X connect 8 0 9 0;
#X connect 9 0 28 1;
#X connect 10 0 26 1;
#X connect 11 0 10 0;
#X connect 13 0 21 0;
#X connect 13 0 21 1;
#X connect 14 0 23 0;
#X connect 15 0 28 1;
#X connect 16 0 24 1;
#X connect 20 0 16 0;
#X connect 21 0 0 0;
#X connect 21 1 0 1;
#X connect 22 0 17 0;
#X connect 23 0 26 0;
#X connect 24 0 30 0;
#X connect 24 1 31 0;
#X connect 24 2 32 0;
#X connect 24 3 33 0;
#X connect 24 4 34 0;
#X connect 24 5 35 0;
#X connect 24 6 36 0;
#X connect 25 0 24 0;
#X connect 26 0 28 0;
#X connect 27 0 42 0;
#X connect 27 1 22 0;
#X connect 27 2 22 0;
#X connect 27 3 22 0;
#X connect 27 4 22 0;
#X connect 28 0 12 0;
#X connect 28 0 40 0;
#X connect 37 0 23 1;
#X connect 41 0 29 0;
#X connect 42 0 17 0;
