#N canvas 269 177 1360 917 10;
#X obj 383 36 adc~;
#X msg 299 72 \; pd dsp \$1;
#X obj 299 30 loadbang;
#X obj 299 52 tgl 15 0 empty empty empty 17 7 0 10 -262144 -1 -1 1
1;
#X obj 30 182 slider_adsr_vol;
#X obj 1154 589 catch~ Lout;
#X obj 1226 589 catch~ Rout;
#X obj 1154 844 dac~;
#X obj 1127 242 throw~ Lout;
#X obj 1202 242 throw~ Rout;
#X obj 221 29 key;
#X floatatom 221 51 5 0 0 0 - - -, f 5;
#X obj 221 92 send on_off;
#X obj 19 27 bpm2msec;
#X obj 383 57 +~;
#X obj 437 31 osc~ 440;
#X obj 437 53 mute;
#X obj 491 31 noise~;
#X obj 1154 619 output;
#X obj 491 78 input_control;
#X obj 32 453 filters;
#X obj 30 151 bypass~;
#X obj 383 78 mute;
#X obj 491 53 mute;
#X obj 173 162 r a;
#X obj 198 162 r d;
#X obj 223 162 r s;
#X obj 248 162 r r;
#X obj 99 162 r vel;
#X obj 221 70 sel 32;
#X obj 136 162 r dur;
#X obj 19 69 clockdevide;
#X obj 437 78 input_control;
#X obj 1275 64 loadbang;
#N canvas 850 426 450 300 kick 0;
#X obj 104 300 outlet~;
#N canvas 0 22 450 278 (subpatch) 0;
#X array kick 15789 float 2;
#X coords 0 1 15789 -1 100 70 1 0 0;
#X restore 105 117 graph;
#X obj 212 117 loadbang;
#X obj 212 186 soundfiler;
#X obj 104 235 tabplay~ kick;
#X obj 104 271 *~;
#X floatatom 146 264 5 0 0 0 - - -, f 5;
#X obj 59 116 inlet;
#X obj 104 195 bng 15 250 50 0 empty empty empty 17 7 0 10 -262144
-1 -1;
#X obj 132 195 hsl 70 15 0 1 0 0 empty empty empty -2 -8 0 10 -262144
-1 -1 0 1;
#X msg 212 138 read -resize sound/808_kick.wav kick;
#X connect 2 0 10 0;
#X connect 4 0 5 0;
#X connect 5 0 0 0;
#X connect 6 0 5 1;
#X connect 7 0 8 0;
#X connect 8 0 4 0;
#X connect 9 0 6 0;
#X connect 10 0 3 0;
#X coords 0 -1 1 1 110 115 2 100 100;
#X restore 1126 105 pd kick;
#X obj 416 306 throw~ input;
#X obj 499 306 throw~ input;
#X obj 383 102 input_control;
#X obj 1126 81 spigot;
#X obj 1159 59 tgl 15 0 empty empty empty 17 7 0 10 -262144 -1 -1 0
1;
#X obj 330 596 loop_track;
#X obj 330 758 *~ 0.5;
#X obj 313 795 throw~ Lout;
#X obj 449 603 vsl 15 80 0 1 0 0 empty empty empty 0 -9 0 10 -262144
-1 -1 0 1;
#X floatatom 449 758 5 0 0 0 - - -, f 5;
#X obj 488 758 *~ 0.5;
#X obj 607 603 vsl 15 80 0 1 0 0 empty empty empty 0 -9 0 10 -262144
-1 -1 0 1;
#X floatatom 607 758 5 0 0 0 - - -, f 5;
#X obj 647 758 *~ 0.5;
#X obj 766 603 vsl 15 80 0 1 0 0 empty empty empty 0 -9 0 10 -262144
-1 -1 0 1;
#X floatatom 766 758 5 0 0 0 - - -, f 5;
#X obj 805 758 *~ 0.5;
#X obj 924 603 vsl 15 80 0 1 0 0 empty empty empty 0 -9 0 10 -262144
-1 -1 0 1;
#X floatatom 924 758 5 0 0 0 - - -, f 5;
#X obj 485 796 throw~ Rout;
#X obj 558 795 throw~ Lout;
#X obj 386 795 throw~ Rout;
#X obj 648 795 throw~ Lout;
#X obj 820 796 throw~ Rout;
#X obj 893 795 throw~ Lout;
#X obj 721 795 throw~ Rout;
#X obj 31 711 throw~ Lout;
#X obj 117 701 throw~ Rout;
#X obj 182 32 bng 15 250 50 0 empty empty empty 17 7 0 10 -262144 -1
-1;
#X floatatom 439 13 5 0 0 0 - - -, f 5;
#X obj 30 124 catch~ input;
#X obj 330 721 mute;
#X obj 488 721 mute;
#X obj 647 721 mute;
#X obj 805 721 mute;
#X obj 40 375 harmonizer;
#N canvas 909 238 450 300 oscdump 1;
#X obj 103 100 unpackOSC;
#X obj 103 144 unpack;
#X floatatom 103 166 5 0 0 0 - - -, f 5;
#X floatatom 139 166 5 0 0 0 - - -, f 5;
#X obj 100 222 s x;
#X obj 139 185 s y;
#X obj 103 78 mrpeach/udpreceive 51200;
#X obj 103 122 routeOSC /pos /cicadas /mute;
#X obj 260 162 unpack 0 0 0 0 0;
#X obj 231 195 tgl 15 0 empty empty empty 17 7 0 10 -262144 -1 -1 1
1;
#X obj 259 195 tgl 15 0 empty empty empty 17 7 0 10 -262144 -1 -1 0
1;
#X obj 286 195 tgl 15 0 empty empty empty 17 7 0 10 -262144 -1 -1 0
1;
#X obj 314 195 tgl 15 0 empty empty empty 17 7 0 10 -262144 -1 -1 1
1;
#X obj 341 195 tgl 15 0 empty empty empty 17 7 0 10 -262144 -1 -1 0
1;
#X obj 312 31 key;
#X floatatom 312 53 5 0 0 0 - - -, f 5;
#X obj 287 80 sel 118 98 110 109 44;
#X obj 175 237 s mute0;
#X obj 223 237 s mute1;
#X obj 271 237 s mute2;
#X obj 319 237 s mute3;
#X obj 367 237 s mute4;
#X connect 0 0 7 0;
#X connect 1 0 2 0;
#X connect 1 1 3 0;
#X connect 2 0 4 0;
#X connect 3 0 5 0;
#X connect 6 0 0 0;
#X connect 7 0 1 0;
#X connect 7 2 8 0;
#X connect 8 0 9 0;
#X connect 8 1 10 0;
#X connect 8 2 11 0;
#X connect 8 3 12 0;
#X connect 8 4 13 0;
#X connect 9 0 17 0;
#X connect 10 0 18 0;
#X connect 11 0 19 0;
#X connect 12 0 20 0;
#X connect 13 0 21 0;
#X connect 14 0 15 0;
#X connect 15 0 16 0;
#X connect 16 0 9 0;
#X connect 16 1 10 0;
#X connect 16 2 11 0;
#X connect 16 3 12 0;
#X connect 16 4 13 0;
#X restore 813 289 pd oscdump;
#X obj 205 341 r x;
#X obj 216 402 r y;
#X obj 216 424 * 100;
#X obj 204 384 / 5;
#X obj 387 725 r mute0;
#X obj 546 720 r mute1;
#X obj 707 723 r mute2;
#X obj 867 723 r mute3;
#X obj 488 596 loop_track;
#X obj 647 596 loop_track;
#X obj 805 596 loop_track;
#X obj 521 485 gate 5, f 14;
#X obj 506 431 r cicada;
#X floatatom 506 453 5 0 0 0 - - -, f 5;
#X msg 584 437 0;
#X msg 617 437 1;
#X msg 654 437 2;
#X msg 692 441 3;
#X msg 728 447 4;
#X obj 951 209 loops;
#X obj 940 344 throw~ Lout;
#X obj 1015 344 throw~ Rout;
#X obj 277 373 scope;
#X msg 1275 140 \; vel 500 \; dur 300 \; a 3 \; d 100 \; s 10 \; r
0 \;;
#X obj 951 186 spigot;
#X obj 983 153 tgl 15 0 empty empty empty 17 7 0 10 -262144 -1 -1 0
1;
#X msg 951 130 ../minmin/sound/beat1.wav;
#X obj 953 106 loadbang;
#X obj 205 363 - 50;
#X obj 976 759 *~ 0.5;
#X obj 1095 604 vsl 15 80 0 1 0 0 empty empty empty 0 -9 0 10 -262144
-1 -1 0 1;
#X floatatom 1095 759 5 0 0 0 - - -, f 5;
#X obj 991 797 throw~ Rout;
#X obj 1064 796 throw~ Lout;
#X obj 976 722 mute;
#X obj 976 597 loop_track;
#X msg 865 426 open 3;
#X obj 868 477 comport 3 9600;
#X msg 937 433 close;
#X msg 807 388 1;
#X obj 1038 724 r mute4;
#X connect 0 0 14 0;
#X connect 0 1 14 1;
#X connect 2 0 3 0;
#X connect 3 0 1 0;
#X connect 4 0 70 0;
#X connect 5 0 18 0;
#X connect 6 0 18 1;
#X connect 10 0 11 0;
#X connect 11 0 29 0;
#X connect 13 0 31 0;
#X connect 14 0 22 0;
#X connect 15 0 16 0;
#X connect 16 0 32 0;
#X connect 17 0 23 0;
#X connect 18 0 7 0;
#X connect 18 1 7 1;
#X connect 19 0 36 0;
#X connect 20 0 62 0;
#X connect 20 0 61 0;
#X connect 20 0 40 0;
#X connect 20 0 80 0;
#X connect 20 0 81 0;
#X connect 20 0 82 0;
#X connect 20 0 94 0;
#X connect 20 0 107 0;
#X connect 21 0 70 0;
#X connect 21 1 4 0;
#X connect 22 0 37 0;
#X connect 23 0 19 0;
#X connect 24 0 4 4;
#X connect 25 0 4 5;
#X connect 26 0 4 6;
#X connect 27 0 4 7;
#X connect 28 0 4 2;
#X connect 29 0 12 0;
#X connect 30 0 4 3;
#X connect 31 0 4 1;
#X connect 31 2 38 0;
#X connect 31 2 111 0;
#X connect 31 5 96 0;
#X connect 32 0 35 0;
#X connect 33 0 95 0;
#X connect 34 0 8 0;
#X connect 34 0 9 0;
#X connect 37 0 21 0;
#X connect 38 0 34 0;
#X connect 39 0 38 1;
#X connect 40 0 66 0;
#X connect 41 0 42 0;
#X connect 41 0 56 0;
#X connect 43 0 44 0;
#X connect 44 0 41 1;
#X connect 45 0 54 0;
#X connect 45 0 55 0;
#X connect 46 0 47 0;
#X connect 47 0 45 1;
#X connect 48 0 57 0;
#X connect 48 0 60 0;
#X connect 49 0 50 0;
#X connect 50 0 48 1;
#X connect 51 0 58 0;
#X connect 51 0 59 0;
#X connect 52 0 53 0;
#X connect 53 0 51 1;
#X connect 63 0 31 1;
#X connect 64 0 15 0;
#X connect 65 0 21 0;
#X connect 66 0 41 0;
#X connect 67 0 45 0;
#X connect 68 0 48 0;
#X connect 69 0 51 0;
#X connect 70 0 20 0;
#X connect 72 0 100 0;
#X connect 73 0 74 0;
#X connect 74 0 20 1;
#X connect 75 0 70 1;
#X connect 76 0 66 1;
#X connect 77 0 67 1;
#X connect 78 0 68 1;
#X connect 79 0 69 1;
#X connect 80 0 67 0;
#X connect 81 0 68 0;
#X connect 82 0 69 0;
#X connect 83 0 40 1;
#X connect 83 1 80 1;
#X connect 83 2 81 1;
#X connect 83 3 82 1;
#X connect 83 4 107 1;
#X connect 84 0 85 0;
#X connect 85 0 83 0;
#X connect 86 0 83 1;
#X connect 87 0 83 1;
#X connect 88 0 83 1;
#X connect 89 0 83 1;
#X connect 90 0 83 1;
#X connect 91 0 92 0;
#X connect 91 0 93 0;
#X connect 96 0 91 0;
#X connect 97 0 96 1;
#X connect 98 0 91 1;
#X connect 99 0 98 0;
#X connect 100 0 75 0;
#X connect 101 0 104 0;
#X connect 101 0 105 0;
#X connect 102 0 103 0;
#X connect 103 0 101 1;
#X connect 106 0 101 0;
#X connect 107 0 106 0;
#X connect 108 0 109 0;
#X connect 110 0 109 0;
#X connect 112 0 106 1;
