#N canvas 122 -1361 1442 871 10;
#X obj 96 630 r mute0;
#X obj 212 625 r mute1;
#X obj 329 628 r mute2;
#X obj 446 628 r mute3;
#X obj 561 628 r mute4;
#X obj 1206 627 dac~;
#X obj 181 108 r a;
#X obj 206 108 r d;
#X obj 231 108 r s;
#X obj 256 108 r r;
#X obj 107 108 r vel;
#X obj 144 108 r dur;
#X obj 110 288 r x;
#X obj 142 288 r y;
#X obj 142 310 * 100;
#X obj 110 332 / 5;
#X obj 110 310 - 50;
#X obj 39 437 throw~ out;
#X obj 39 650 throw~ out;
#X obj 154 650 throw~ out;
#X obj 269 650 throw~ out;
#X obj 384 650 throw~ out;
#X obj 499 650 throw~ out;
#X obj 1206 411 catch~ out;
#X obj 276 453 gate 5, f 14;
#X floatatom 276 434 5 0 0 0 - - -, f 5;
#X obj 38 88 catch~ input;
#X obj 143 332 r cutoff;
#X obj 251 52 bng 15 250 50 0 empty empty empty 17 7 0 10 -262144 -1
-1;
#X obj 364 265 throw~ input;
#N canvas 387 129 1337 905 oscreceive 0;
#X obj 74 90 unpackOSC;
#X obj 74 134 unpack;
#X floatatom 11 263 5 0 0 0 - - -, f 5;
#X floatatom 73 264 5 0 0 0 - - -, f 5;
#X obj 11 281 s x;
#X obj 73 282 s y;
#X obj 400 562 tgl 15 0 empty empty empty 17 7 0 10 -262144 -1 -1 0
1;
#X obj 428 562 tgl 15 0 empty empty empty 17 7 0 10 -262144 -1 -1 0
1;
#X obj 455 562 tgl 15 0 empty empty empty 17 7 0 10 -262144 -1 -1 1
1;
#X obj 483 562 tgl 15 0 empty empty empty 17 7 0 10 -262144 -1 -1 0
1;
#X obj 510 562 tgl 15 0 empty empty empty 17 7 0 10 -262144 -1 -1 0
1;
#X obj 438 437 key;
#X floatatom 439 462 5 0 0 0 - - -, f 5;
#X obj 414 489 sel 118 98 110 109 44;
#X obj 396 584 s mute0;
#X obj 444 584 s mute1;
#X obj 492 584 s mute2;
#X obj 540 584 s mute3;
#X obj 588 584 s mute4;
#X obj 243 506 s track;
#X obj 257 367 key;
#X floatatom 257 389 5 0 0 0 - - -, f 5;
#X obj 257 409 sel 49 50 51 52 53;
#X obj 303 329 s rec_time;
#X obj 303 216 key;
#X floatatom 303 238 5 0 0 0 - - -, f 5;
#X obj 303 262 sel 121 117 105 111 112;
#X msg 297 293 0;
#X msg 327 293 1;
#X msg 356 293 2;
#X msg 386 293 3;
#X msg 416 293 4;
#X obj 257 457 hradio 15 1 0 5 empty empty empty 0 -8 0 10 -262144
-1 -1 0;
#X obj 257 477 + 1;
#X msg 257 431 0;
#X msg 287 431 1;
#X msg 318 431 2;
#X msg 348 431 3;
#X msg 378 431 4;
#X obj 443 362 s sample1;
#X obj 691 362 s sample5;
#X obj 629 362 s sample4;
#X obj 567 362 s sample3;
#X obj 505 362 s sample2;
#X obj 470 325 tgl 15 0 empty empty empty 17 7 0 10 -262144 -1 -1 0
1;
#X obj 498 325 tgl 15 0 empty empty empty 17 7 0 10 -262144 -1 -1 1
1;
#X obj 525 325 tgl 15 0 empty empty empty 17 7 0 10 -262144 -1 -1 1
1;
#X obj 553 325 tgl 15 0 empty empty empty 17 7 0 10 -262144 -1 -1 1
1;
#X obj 580 325 tgl 15 0 empty empty empty 17 7 0 10 -262144 -1 -1 0
1;
#X obj 465 203 key;
#X floatatom 465 225 5 0 0 0 - - -, f 5;
#X obj 465 249 sel 103 104 106 107 108;
#X obj 120 271 tgl 15 0 empty empty empty 17 7 0 10 -262144 -1 -1 1
1;
#X obj 147 271 tgl 15 0 empty empty empty 17 7 0 10 -262144 -1 -1 1
1;
#X obj 174 271 tgl 15 0 empty empty empty 17 7 0 10 -262144 -1 -1 1
1;
#X obj 202 271 tgl 15 0 empty empty empty 17 7 0 10 -262144 -1 -1 1
1;
#X obj 229 271 tgl 15 0 empty empty empty 17 7 0 10 -262144 -1 -1 1
1;
#X obj 110 293 s cicada0;
#X obj 147 315 s cicada1;
#X obj 175 294 s cicada2;
#X obj 198 338 s cicada3;
#X obj 226 316 s cicada4;
#X obj 148 235 sel 0 1 2 3 4;
#X obj 74 68 mrpeach/udpreceive 51200;
#X obj 429 529 sel 0 1 2 3 4 5;
#X obj 459 288 sel 0 1 2 3 4;
#X obj 78 28 import mrpeach;
#X obj 74 112 routeOSC /pos /cicada /track /rec /mute /sample /onoff
/vol;
#X obj 379 156 tgl 15 0 empty empty empty 17 7 0 10 -262144 -1 -1 0
1;
#X obj 379 176 s on_off;
#X obj 633 247 s vol;
#X floatatom 639 220 5 0 0 0 - - -, f 5;
#X obj 11 217 / 255;
#X obj 11 239 * 100;
#X obj 73 218 / 255;
#X obj 73 240 * 100;
#X obj 10 166 pack 0 100;
#X obj 10 188 line;
#X obj 82 165 pack 0 100;
#X obj 82 187 line;
#X obj 633 147 pack 0 100;
#X obj 633 169 line;
#X obj 633 191 / 100;
#X obj 24 325 loadbang;
#X msg 24 356 1;
#X obj 643 467 loadbang;
#X msg 643 489 0;
#X connect 0 0 67 0;
#X connect 1 0 76 0;
#X connect 1 1 78 0;
#X connect 2 0 4 0;
#X connect 3 0 5 0;
#X connect 6 0 14 0;
#X connect 7 0 15 0;
#X connect 8 0 16 0;
#X connect 9 0 17 0;
#X connect 10 0 18 0;
#X connect 11 0 12 0;
#X connect 12 0 13 0;
#X connect 13 0 6 0;
#X connect 13 1 7 0;
#X connect 13 2 8 0;
#X connect 13 3 9 0;
#X connect 13 4 10 0;
#X connect 20 0 21 0;
#X connect 21 0 22 0;
#X connect 22 0 34 0;
#X connect 22 1 35 0;
#X connect 22 2 36 0;
#X connect 22 3 37 0;
#X connect 22 4 38 0;
#X connect 24 0 25 0;
#X connect 25 0 26 0;
#X connect 26 0 27 0;
#X connect 26 1 28 0;
#X connect 26 2 29 0;
#X connect 26 3 30 0;
#X connect 26 4 31 0;
#X connect 27 0 23 0;
#X connect 28 0 23 0;
#X connect 29 0 23 0;
#X connect 30 0 23 0;
#X connect 31 0 23 0;
#X connect 32 0 33 0;
#X connect 33 0 19 0;
#X connect 34 0 32 0;
#X connect 35 0 32 0;
#X connect 36 0 32 0;
#X connect 37 0 32 0;
#X connect 38 0 32 0;
#X connect 44 0 39 0;
#X connect 45 0 43 0;
#X connect 46 0 42 0;
#X connect 47 0 41 0;
#X connect 48 0 40 0;
#X connect 49 0 50 0;
#X connect 50 0 51 0;
#X connect 51 0 44 0;
#X connect 51 1 45 0;
#X connect 51 2 46 0;
#X connect 51 3 47 0;
#X connect 51 4 48 0;
#X connect 52 0 57 0;
#X connect 53 0 58 0;
#X connect 54 0 59 0;
#X connect 55 0 60 0;
#X connect 56 0 61 0;
#X connect 62 0 52 0;
#X connect 62 1 53 0;
#X connect 62 2 54 0;
#X connect 62 3 55 0;
#X connect 62 4 56 0;
#X connect 63 0 0 0;
#X connect 64 0 6 0;
#X connect 64 1 7 0;
#X connect 64 2 8 0;
#X connect 64 3 9 0;
#X connect 64 4 10 0;
#X connect 65 0 44 0;
#X connect 65 1 45 0;
#X connect 65 2 46 0;
#X connect 65 3 47 0;
#X connect 65 4 48 0;
#X connect 67 0 1 0;
#X connect 67 1 62 0;
#X connect 67 2 32 0;
#X connect 67 3 23 0;
#X connect 67 4 64 0;
#X connect 67 5 65 0;
#X connect 67 6 68 0;
#X connect 67 7 80 0;
#X connect 68 0 69 0;
#X connect 71 0 70 0;
#X connect 72 0 73 0;
#X connect 73 0 2 0;
#X connect 74 0 75 0;
#X connect 75 0 3 0;
#X connect 76 0 77 0;
#X connect 77 0 72 0;
#X connect 78 0 79 0;
#X connect 79 0 74 0;
#X connect 80 0 81 0;
#X connect 81 0 82 0;
#X connect 82 0 71 0;
#X connect 83 0 84 0;
#X connect 84 0 52 0;
#X connect 84 0 53 0;
#X connect 84 0 54 0;
#X connect 84 0 55 0;
#X connect 84 0 56 0;
#X connect 85 0 86 0;
#X connect 86 0 10 0;
#X connect 86 0 9 0;
#X connect 86 0 8 0;
#X connect 86 0 7 0;
#X connect 86 0 6 0;
#X restore 178 19 pd oscreceive;
#N canvas 908 319 450 300 setup 0;
#X obj 92 118 key;
#X floatatom 92 140 5 0 0 0 - - -, f 5;
#X obj 93 216 send on_off;
#X obj 92 159 sel 32;
#X obj 179 22 loadbang;
#X msg 110 64 \; pd dsp \$1;
#X obj 110 22 loadbang;
#X obj 110 44 tgl 15 0 empty empty empty 17 7 0 10 -262144 -1 -1 1
1;
#X msg 179 44 \; vel 600 \; dur 300 \; a 3 \; d 100 \; s 10 \; r 0
\; cutoff 10000 \; res 0 \;;
#X connect 0 0 1 0;
#X connect 1 0 3 0;
#X connect 3 0 2 0;
#X connect 4 0 8 0;
#X connect 6 0 7 0;
#X connect 7 0 5 0;
#X restore 122 19 pd setup;
#X obj 736 484 spigot;
#X obj 769 464 tgl 15 0 empty empty empty 17 7 0 10 -262144 -1 -1 1
1;
#X obj 334 413 r rec_time;
#X obj 276 412 r track;
#X obj 736 628 throw~ out;
#X obj 621 484 spigot;
#X obj 654 464 tgl 15 0 empty empty empty 17 7 0 10 -262144 -1 -1 0
1;
#X obj 621 628 throw~ out;
#X obj 264 19 r on_off;
#X obj 851 484 spigot;
#X obj 884 464 tgl 15 0 empty empty empty 17 7 0 10 -262144 -1 -1 1
1;
#X obj 851 628 throw~ out;
#X obj 903 484 r sample3;
#X obj 673 484 r sample1;
#X obj 788 485 r sample2;
#X obj 966 484 spigot;
#X obj 999 464 tgl 15 0 empty empty empty 17 7 0 10 -262144 -1 -1 1
1;
#X obj 966 628 throw~ out;
#X obj 1081 484 spigot;
#X obj 1114 464 tgl 15 0 empty empty empty 17 7 0 10 -262144 -1 -1
0 1;
#X obj 1081 628 throw~ out;
#X obj 1018 484 r sample4;
#X obj 1133 484 r sample5;
#X obj 728 435 bng 15 250 50 0 empty empty empty 17 7 0 10 -262144
-1 -1;
#N canvas 441 549 898 118 loadsamples 0;
#X obj 222 34 loadbang;
#X obj 42 34 loadbang;
#X obj 383 34 loadbang;
#X obj 544 34 loadbang;
#X obj 699 34 loadbang;
#X obj 42 80 outlet;
#X obj 222 80 outlet;
#X obj 383 80 outlet;
#X obj 544 80 outlet;
#X obj 699 80 outlet;
#X msg 383 58 ../sound/beat2.wav;
#X msg 222 58 ../sound/beat1.wav;
#X msg 544 58 ../sound/bass.wav;
#X msg 699 58 ../sound/synth.wav;
#X msg 42 58 ../sound/808_kick.wav;
#X connect 0 0 11 0;
#X connect 1 0 14 0;
#X connect 2 0 10 0;
#X connect 3 0 12 0;
#X connect 4 0 13 0;
#X connect 10 0 7 0;
#X connect 11 0 6 0;
#X connect 12 0 8 0;
#X connect 13 0 9 0;
#X connect 14 0 5 0;
#X restore 1103 428 pd loadsamples;
#X msg 1211 131 close;
#X obj 1071 100 bng 15 250 50 0 empty empty empty 17 7 0 10 -262144
-1 -1;
#X msg 1071 120 1;
#X obj 269 501 units/loop_track;
#X obj 154 501 units/loop_track;
#X obj 39 501 units/loop_track;
#X obj 384 501 units/loop_track;
#X obj 499 501 units/loop_track;
#X obj 621 511 units/loops;
#X obj 736 511 units/loops;
#X obj 851 511 units/loops;
#X obj 966 511 units/loops;
#X obj 1081 511 units/loops;
#X obj 1206 432 units/output;
#X obj 364 82 units/input_control;
#X obj 38 128 units/slider_adsr_vol;
#X obj 38 44 units/clockdevide;
#X obj 38 17 units/bpm2msec;
#X obj 38 288 units/harmonizer;
#X obj 39 626 units/mute;
#X obj 154 626 units/mute;
#X obj 269 626 units/mute;
#X obj 384 626 units/mute;
#X obj 499 626 units/mute;
#X obj 1158 183 comport 0 9600;
#X msg 1146 115 open \$1;
#X msg 1139 82 0;
#X msg 1169 82 1;
#X msg 1199 82 2;
#X msg 1229 83 3;
#N canvas 704 -547 617 305 cicadas 0;
#X obj 84 62 adc~;
#X obj 84 83 +~;
#X obj 140 58 loadbang;
#X obj 230 58 loadbang;
#X obj 339 58 loadbang;
#X obj 462 57 loadbang;
#X obj 172 176 r cicada1;
#X obj 254 171 r cicada2;
#X obj 352 176 r cicada3;
#X obj 446 182 r cicada4;
#X obj 109 165 r cicada0;
#X obj 140 119 units/cicada;
#X obj 230 119 units/cicada;
#X obj 339 119 units/cicada;
#X obj 462 118 units/cicada;
#X obj 462 140 units/mute;
#X obj 339 141 units/mute;
#X obj 230 141 units/mute;
#X obj 140 141 units/mute;
#X obj 67 140 units/mute;
#X msg 140 85 ../sound/min.wav;
#X msg 230 85 ../sound/tsuku.wav;
#X msg 339 85 ../sound/cicadas1.wav;
#X msg 462 84 ../sound/cicadas2.wav;
#X obj 104 227 outlet~;
#X obj 155 223 outlet~;
#X obj 46 226 outlet~;
#X obj 272 225 outlet~;
#X obj 214 224 outlet~;
#X connect 0 0 1 0;
#X connect 0 1 1 1;
#X connect 1 0 19 0;
#X connect 2 0 20 0;
#X connect 3 0 21 0;
#X connect 4 0 22 0;
#X connect 5 0 23 0;
#X connect 6 0 18 1;
#X connect 7 0 17 1;
#X connect 8 0 16 1;
#X connect 9 0 15 1;
#X connect 10 0 19 1;
#X connect 11 0 18 0;
#X connect 12 0 17 0;
#X connect 13 0 16 0;
#X connect 14 0 15 0;
#X connect 15 0 27 0;
#X connect 16 0 28 0;
#X connect 17 0 25 0;
#X connect 18 0 24 0;
#X connect 19 0 26 0;
#X connect 20 0 11 0;
#X connect 21 0 12 0;
#X connect 22 0 13 0;
#X connect 23 0 14 0;
#X restore 346 20 pd cicadas;
#N canvas 549 -773 450 300 cutoff 0;
#X obj 87 35 inlet~;
#X obj 87 198 outlet~;
#X obj 87 155 lores~;
#X obj 106 114 hsl 128 15 0 10000 0 0 empty empty cutoff -2 -8 0 10
-262144 -1 -1 0 1;
#X floatatom 103 134 5 0 0 0 - - -, f 5;
#X obj 103 72 inlet;
#X connect 0 0 2 0;
#X connect 2 0 1 0;
#X connect 3 0 4 0;
#X connect 4 0 2 1;
#X connect 5 0 3 0;
#X coords 0 -1 1 1 140 50 2 100 100;
#X restore 39 380 pd cutoff;
#N canvas 398 -941 647 486 loopers 1;
#X obj 114 14 inlet;
#X obj 160 14 inlet;
#X obj 206 14 inlet;
#X obj 250 14 inlet;
#X obj 302 14 inlet;
#X obj 114 36 bng 15 250 50 0 empty empty empty 17 7 0 10 -262144 -1
-1;
#X obj 160 36 bng 15 250 50 0 empty empty empty 17 7 0 10 -262144 -1
-1;
#X obj 206 36 bng 15 250 50 0 empty empty empty 17 7 0 10 -262144 -1
-1;
#X obj 250 36 bng 15 250 50 0 empty empty empty 17 7 0 10 -262144 -1
-1;
#X obj 302 36 bng 15 250 50 0 empty empty empty 17 7 0 10 -262144 -1
-1;
#N canvas 951 -1008 614 451 track1 1;
#X obj 39 -14 inlet~;
#N canvas 0 22 450 278 (subpatch) 0;
#X array track1 22050 float 0;
#X coords 0 1 22049 -1 100 70 1 0 0;
#X restore 393 38 graph;
#X obj 54 175 tabwrite~ track1;
#X obj 118 -2 inlet;
#X obj 99 88 gate;
#X msg 135 120 stop;
#X obj 71 88 tgl 15 0 empty empty empty 17 7 0 10 -262144 -1 -1 0 1
;
#X connect 0 0 2 0;
#X connect 3 0 4 1;
#X connect 4 0 2 0;
#X connect 4 0 6 0;
#X connect 5 0 2 0;
#X connect 6 0 4 0;
#X restore 66 226 pd track1;
#X obj 39 18 inlet~;
#X connect 0 0 5 0;
#X connect 1 0 6 0;
#X connect 2 0 7 0;
#X connect 3 0 8 0;
#X connect 4 0 9 0;
#X connect 5 0 10 1;
#X connect 11 0 10 0;
#X restore 299 91 pd loopers;
#X connect 0 0 76 1;
#X connect 1 0 77 1;
#X connect 2 0 78 1;
#X connect 3 0 79 1;
#X connect 4 0 80 1;
#X connect 6 0 72 4;
#X connect 7 0 72 5;
#X connect 8 0 72 6;
#X connect 9 0 72 7;
#X connect 10 0 72 2;
#X connect 11 0 72 3;
#X connect 12 0 16 0;
#X connect 13 0 14 0;
#X connect 15 0 75 1;
#X connect 16 0 15 0;
#X connect 23 0 70 0;
#X connect 23 0 70 1;
#X connect 24 0 62 1;
#X connect 24 1 61 1;
#X connect 24 2 60 1;
#X connect 24 3 63 1;
#X connect 24 4 64 1;
#X connect 25 0 24 0;
#X connect 26 0 72 0;
#X connect 27 0 88 1;
#X connect 28 0 73 1;
#X connect 32 0 66 0;
#X connect 33 0 32 1;
#X connect 34 0 24 1;
#X connect 35 0 25 0;
#X connect 37 0 65 0;
#X connect 38 0 37 1;
#X connect 40 0 28 0;
#X connect 41 0 67 0;
#X connect 42 0 41 1;
#X connect 44 0 42 0;
#X connect 45 0 38 0;
#X connect 46 0 33 0;
#X connect 47 0 68 0;
#X connect 48 0 47 1;
#X connect 50 0 69 0;
#X connect 51 0 50 1;
#X connect 53 0 48 0;
#X connect 54 0 51 0;
#X connect 55 0 32 0;
#X connect 55 0 41 0;
#X connect 55 0 47 0;
#X connect 55 0 50 0;
#X connect 56 0 65 1;
#X connect 56 1 66 1;
#X connect 56 2 67 1;
#X connect 56 3 68 1;
#X connect 56 4 69 1;
#X connect 57 0 81 0;
#X connect 58 0 59 0;
#X connect 59 0 81 0;
#X connect 60 0 78 0;
#X connect 61 0 77 0;
#X connect 62 0 76 0;
#X connect 63 0 79 0;
#X connect 64 0 80 0;
#X connect 65 0 39 0;
#X connect 66 0 36 0;
#X connect 67 0 43 0;
#X connect 68 0 49 0;
#X connect 69 0 52 0;
#X connect 70 0 5 0;
#X connect 70 1 5 1;
#X connect 71 0 29 0;
#X connect 72 0 75 0;
#X connect 73 0 72 1;
#X connect 73 2 37 0;
#X connect 73 2 58 0;
#X connect 73 2 89 1;
#X connect 73 3 89 2;
#X connect 73 4 89 3;
#X connect 73 5 55 0;
#X connect 73 5 89 4;
#X connect 73 6 89 5;
#X connect 74 0 73 0;
#X connect 75 0 88 0;
#X connect 76 0 18 0;
#X connect 77 0 19 0;
#X connect 78 0 20 0;
#X connect 79 0 21 0;
#X connect 80 0 22 0;
#X connect 82 0 81 0;
#X connect 83 0 82 0;
#X connect 84 0 82 0;
#X connect 85 0 82 0;
#X connect 86 0 82 0;
#X connect 87 0 71 0;
#X connect 87 1 71 0;
#X connect 87 2 71 0;
#X connect 87 3 71 0;
#X connect 87 4 71 0;
#X connect 88 0 17 0;
#X connect 88 0 89 0;
