#N canvas 145 269 466 541 10;
#X obj 35 30 inlet;
#X obj 35 79 t b b;
#X msg 152 146 0;
#X obj 66 170 expr $f1/127;
#X floatatom 66 192 5 0 0 0 - - -, f 5;
#X obj 66 211 sel 0;
#X obj 66 233 t b b;
#X obj 66 295 bng 15 250 50 0 empty empty empty 17 7 0 10 -262144 -1
-1;
#X msg 93 264 stop;
#X floatatom 133 247 5 0 0 0 - - -, f 5;
#X obj 133 266 t f b f;
#X obj 93 442 line~;
#X obj 93 464 outlet~;
#X obj 115 32 inlet;
#X floatatom 115 70 5 0 0 2 Velocity - -, f 5;
#X obj 180 32 inlet;
#X obj 232 32 inlet;
#X floatatom 180 69 5 0 0 2 Duration - -, f 5;
#X obj 285 32 inlet;
#X obj 338 32 inlet;
#X obj 389 32 inlet;
#X floatatom 297 331 5 0 0 2 Decay(Time) - -, f 5;
#X floatatom 190 235 5 0 0 2 Attack - -, f 5;
#X floatatom 123 219 5 0 0 2 Release - -, f 5;
#X floatatom 255 302 5 0 0 2 Sustain(Level) - -, f 5;
#X obj 240 354 * 0.01;
#X obj 240 376 *;
#X obj 66 148 f \$1;
#X obj 152 124 del \$2;
#X obj 133 315 pack f \$3;
#X obj 240 398 pack f \$4;
#X obj 240 332 f \$5;
#X obj 66 315 pack 0 \$6;
#X obj 211 299 del \$3;
#X connect 0 0 1 0;
#X connect 1 0 27 0;
#X connect 1 1 28 0;
#X connect 2 0 4 0;
#X connect 3 0 4 0;
#X connect 4 0 5 0;
#X connect 5 0 6 0;
#X connect 5 1 9 0;
#X connect 6 0 7 0;
#X connect 6 1 8 0;
#X connect 7 0 32 0;
#X connect 8 0 33 0;
#X connect 9 0 10 0;
#X connect 10 0 29 0;
#X connect 10 1 33 0;
#X connect 10 2 26 1;
#X connect 11 0 12 0;
#X connect 13 0 14 0;
#X connect 14 0 27 1;
#X connect 15 0 17 0;
#X connect 16 0 22 0;
#X connect 17 0 28 1;
#X connect 18 0 21 0;
#X connect 19 0 24 0;
#X connect 20 0 23 0;
#X connect 21 0 30 1;
#X connect 22 0 29 1;
#X connect 22 0 33 1;
#X connect 23 0 32 1;
#X connect 24 0 31 1;
#X connect 25 0 26 0;
#X connect 26 0 30 0;
#X connect 27 0 3 0;
#X connect 28 0 2 0;
#X connect 29 0 11 0;
#X connect 30 0 11 0;
#X connect 31 0 25 0;
#X connect 32 0 11 0;
#X connect 33 0 31 0;
