#N canvas 266 318 450 300 10;
#X obj 145 59 loadbang;
#X floatatom 145 103 5 80 200 0 BPM - -, f 5;
#X obj 145 128 expr 60/$f1*1000;
#X msg 145 81 120;
#X obj 145 24 inlet;
#X obj 81 204 metro 100;
#X floatatom 174 153 5 0 0 0 - - -, f 5;
#X obj 145 150 / 4;
#X floatatom 145 172 5 0 0 0 - - -, f 5;
#X obj 103 102 tgl 15 0 empty empty empty 17 7 0 10 -262144 -1 -1 0
1;
#X obj 56 50 r on_off;
#X obj 81 241 outlet;
#X obj 280 182 s bpm;
#X connect 0 0 3 0;
#X connect 1 0 2 0;
#X connect 1 0 12 0;
#X connect 2 0 6 0;
#X connect 2 0 7 0;
#X connect 3 0 1 0;
#X connect 4 0 1 0;
#X connect 5 0 11 0;
#X connect 7 0 8 0;
#X connect 8 0 5 1;
#X connect 9 0 5 0;
#X connect 10 0 9 0;
#X coords 0 -1 1 1 80 20 2 100 100;
