#N canvas 219 273 450 300 10;
#X obj 103 102 tgl 15 0 empty empty bypass 17 7 0 10 -262144 -1 -1
0 1;
#X floatatom 103 144 5 0 0 0 - - -, f 5;
#X obj 103 122 expr 1-$f1;
#X floatatom 69 144 5 0 0 0 - - -, f 5;
#X obj 22 103 inlet~;
#X obj 22 198 outlet~;
#X obj 71 198 outlet~;
#X obj 103 79 inlet;
#X obj 22 167 *~ 0;
#X obj 54 167 *~ 1;
#X connect 0 0 2 0;
#X connect 0 0 3 0;
#X connect 1 0 9 1;
#X connect 2 0 1 0;
#X connect 3 0 8 1;
#X connect 4 0 8 0;
#X connect 4 0 9 0;
#X connect 7 0 0 0;
#X connect 8 0 5 0;
#X connect 9 0 6 0;
#X coords 0 -1 1 1 60 20 2 100 100;
