#N canvas 1008 265 450 300 10;
#N canvas 0 22 450 278 (subpatch) 0;
#X array cicada\$0 278674 float 2;
#X coords 0 1 278674 -1 200 140 1;
#X restore 189 48 graph;
#X obj 17 128 soundfiler;
#X obj 17 51 inlet;
#X obj 17 76 pack s \$0;
#X msg 17 102 read -resize \$1 cicada\$2;
#X obj 67 220 tabplay~ cicada\$0;
#X obj 66 252 outlet~;
#X obj 58 192 bng 15 250 50 0 empty empty empty 17 7 0 10 -262144 -1
-1;
#X connect 1 0 7 0;
#X connect 2 0 3 0;
#X connect 3 0 4 0;
#X connect 4 0 1 0;
#X connect 5 0 6 0;
#X connect 5 1 7 0;
#X connect 7 0 5 0;
