#N canvas 1109 281 772 601 10;
#X obj 47 213 bng 15 250 50 0 empty empty empty 17 7 0 10 -262144 -1
-1;
#X floatatom 61 263 5 0 0 0 - - -, f 5;
#X obj 61 282 sel 0;
#X obj 50 368 bng 20 250 50 0 empty empty 2 0 -8 0 10 -262144 -1 -1
;
#X floatatom 124 263 5 0 0 0 - - -, f 5;
#X obj 124 282 sel 0;
#X obj 78 368 bng 20 250 50 0 empty empty 4 0 -8 0 10 -262144 -1 -1
;
#X floatatom 186 263 5 0 0 0 - - -, f 5;
#X obj 186 282 sel 0;
#X obj 106 368 bng 20 250 50 0 empty empty 8 0 -8 0 10 -262144 -1 -1
;
#X floatatom 248 263 5 0 0 0 - - -, f 5;
#X obj 248 282 sel 0;
#X obj 135 368 bng 20 250 50 0 empty empty 16 0 -8 0 10 -262144 -1
-1;
#X floatatom 316 263 5 0 0 0 - - -, f 5;
#X obj 316 282 sel 0;
#X obj 164 368 bng 20 250 50 0 empty empty 32 0 -8 0 10 -262144 -1
-1;
#X floatatom 384 263 5 0 0 0 - - -, f 5;
#X obj 384 282 sel 0;
#X obj 192 368 bng 20 250 50 0 empty empty 64 2 -8 0 10 -262144 -1
-1;
#X obj 23 368 bng 20 250 50 0 empty empty 1 0 -8 0 10 -262144 -1 -1
;
#X obj 23 393 outlet;
#X obj 50 417 outlet;
#X obj 78 393 outlet;
#X obj 106 417 outlet;
#X obj 135 393 outlet;
#X obj 164 417 outlet;
#X obj 192 393 outlet;
#X msg 384 188 reset;
#X obj 61 241 count 2;
#X obj 124 241 count 4;
#X obj 186 241 count 8;
#X obj 248 241 count 16;
#X obj 316 241 count 32;
#X obj 384 241 count 64;
#X obj 47 182 inlet;
#X obj 387 155 inlet;
#X connect 0 0 19 0;
#X connect 0 0 28 0;
#X connect 0 0 29 0;
#X connect 0 0 30 0;
#X connect 0 0 31 0;
#X connect 0 0 32 0;
#X connect 0 0 33 0;
#X connect 1 0 2 0;
#X connect 2 0 3 0;
#X connect 3 0 21 0;
#X connect 4 0 5 0;
#X connect 5 0 6 0;
#X connect 6 0 22 0;
#X connect 7 0 8 0;
#X connect 8 0 9 0;
#X connect 9 0 23 0;
#X connect 10 0 11 0;
#X connect 11 0 12 0;
#X connect 12 0 24 0;
#X connect 13 0 14 0;
#X connect 14 0 15 0;
#X connect 15 0 25 0;
#X connect 16 0 17 0;
#X connect 17 0 18 0;
#X connect 18 0 26 0;
#X connect 19 0 20 0;
#X connect 27 0 28 0;
#X connect 27 0 29 0;
#X connect 27 0 30 0;
#X connect 27 0 31 0;
#X connect 27 0 32 0;
#X connect 27 0 33 0;
#X connect 28 0 1 0;
#X connect 29 0 4 0;
#X connect 30 0 7 0;
#X connect 31 0 10 0;
#X connect 32 0 13 0;
#X connect 33 0 16 0;
#X connect 34 0 0 0;
#X connect 35 0 27 0;
#X coords 0 -1 1 1 195 40 2 20 350;
