#N canvas 225 399 1145 522 10;
#X obj 404 100 adc~;
#X msg 404 63 \; pd dsp \$1;
#X obj 404 21 loadbang;
#X obj 404 43 tgl 15 0 empty empty empty 17 7 0 10 -262144 -1 -1 1
1;
#X obj 404 143 *~ 1;
#X obj 404 165 send~ Lin;
#X obj 465 143 *~ 1;
#X obj 532 117 env~;
#X obj 533 166 vu 15 120 empty empty -1 -8 0 10 -66577 -1 1 0;
#X obj 465 165 send~ Rin;
#X obj 532 139 - 100;
#X obj 792 69 catch~ Lout;
#X obj 885 69 catch~ Rout;
#X obj 792 120 hip~ 5;
#X obj 885 120 hip~ 5;
#X obj 842 159 dac~;
#X obj 984 74 env~;
#X obj 985 123 vu 15 120 empty empty -1 -8 0 10 -66577 -1 1 0;
#X obj 984 96 - 100;
#X obj 1040 74 env~;
#X obj 1041 123 vu 15 120 empty empty -1 -8 0 10 -66577 -1 1 0;
#X obj 1040 96 - 100;
#X obj 253 23 loadbang;
#X msg 253 45 100;
#X floatatom 253 67 5 80 200 0 BPM - -, f 5;
#X obj 253 95 expr 60/$f1*4*44100;
#X obj 148 95 expr 60/$f1*1000;
#X floatatom 148 117 5 0 0 0 - - -, f 5;
#X obj 91 116 tgl 15 0 empty empty empty 17 7 0 10 -262144 -1 -1 0
1;
#X obj 91 136 metro 1000;
#X obj 91 158 bng 30 250 50 0 empty empty empty 17 7 0 10 -262144 -1
-1;
#X floatatom 253 117 8 0 0 0 - - -, f 8;
#X obj 253 136 / 44100;
#X obj 310 136 s time_samp;
#X floatatom 253 158 5 0 0 0 - - -, f 5;
#X obj 253 177 * 1000;
#X obj 253 199 s time_msec;
#X obj 4 199 slider_adsr_vol;
#X obj 321 422 *~ 0.2;
#X obj 321 444 throw~ Lout;
#X obj 398 444 throw~ Rout;
#X obj 354 183 vsl 15 128 0 1 0 0 empty empty empty 0 -9 0 10 -262144
-1 -1 0 1;
#X floatatom 354 352 5 0 0 0 - - -, f 5;
#X obj 354 395 f 0.2;
#X obj 386 205 key;
#X floatatom 386 227 5 0 0 0 - - -, f 5;
#X obj 386 246 sel 32;
#X obj 386 268 tgl 30 0 empty empty empty 17 7 0 10 -262144 -1 -1 0
1;
#X obj 386 303 sel 1;
#X msg 413 333 0;
#X obj 493 354 loop_track;
#X obj 493 328 receive~ Lin;
#X obj 493 449 *~ 0.5;
#X obj 493 471 throw~ Lout;
#X obj 612 361 vsl 15 80 0 1 0 0 empty empty empty 0 -9 0 10 -262144
-1 -1 0 1;
#X floatatom 612 449 5 0 0 0 - - -, f 5;
#X obj 660 198 key;
#X floatatom 660 220 5 0 0 0 - - -, f 5;
#X obj 660 239 sel 114 116 121 117;
#X obj 660 261 bng 15 250 50 0 empty empty empty 17 7 0 10 -262144
-1 -1;
#X obj 687 262 bng 15 250 50 0 empty empty empty 17 7 0 10 -262144
-1 -1;
#X obj 715 262 bng 15 250 50 0 empty empty empty 17 7 0 10 -262144
-1 -1;
#X obj 743 262 bng 15 250 50 0 empty empty empty 17 7 0 10 -262144
-1 -1;
#X obj 651 449 *~ 0.5;
#X obj 770 361 vsl 15 80 0 1 0 0 empty empty empty 0 -9 0 10 -262144
-1 -1 0 1;
#X floatatom 770 449 5 0 0 0 - - -, f 5;
#X obj 810 328 receive~ Lin;
#X obj 810 449 *~ 0.5;
#X obj 810 471 throw~ Lout;
#X obj 929 361 vsl 15 80 0 1 0 0 empty empty empty 0 -9 0 10 -262144
-1 -1 0 1;
#X floatatom 929 449 5 0 0 0 - - -, f 5;
#X obj 968 328 receive~ Lin;
#X obj 968 449 *~ 0.5;
#X obj 1087 361 vsl 15 80 0 1 0 0 empty empty empty 0 -9 0 10 -262144
-1 -1 0 1;
#X floatatom 1087 449 5 0 0 0 - - -, f 5;
#X obj 651 328 receive~ Rin;
#X obj 651 471 throw~ Rout;
#X obj 968 471 throw~ Rout;
#X text 714 219 R \, T \, Y \, U;
#X obj 651 354 loop_track;
#X obj 810 354 loop_track;
#X obj 968 354 loop_track;
#X obj 4 175 osc~ 440;
#X connect 0 0 4 0;
#X connect 0 0 7 0;
#X connect 0 1 6 0;
#X connect 2 0 3 0;
#X connect 3 0 1 0;
#X connect 4 0 5 0;
#X connect 6 0 9 0;
#X connect 7 0 10 0;
#X connect 10 0 8 0;
#X connect 11 0 13 0;
#X connect 11 0 16 0;
#X connect 12 0 14 0;
#X connect 12 0 19 0;
#X connect 13 0 15 0;
#X connect 14 0 15 1;
#X connect 16 0 18 0;
#X connect 18 0 17 0;
#X connect 19 0 21 0;
#X connect 21 0 20 0;
#X connect 22 0 23 0;
#X connect 23 0 24 0;
#X connect 24 0 25 0;
#X connect 24 0 26 0;
#X connect 25 0 31 0;
#X connect 26 0 27 0;
#X connect 27 0 29 1;
#X connect 28 0 29 0;
#X connect 29 0 30 0;
#X connect 30 0 37 1;
#X connect 31 0 32 0;
#X connect 31 0 33 0;
#X connect 32 0 34 0;
#X connect 34 0 35 0;
#X connect 35 0 36 0;
#X connect 37 0 38 0;
#X connect 38 0 39 0;
#X connect 38 0 40 0;
#X connect 41 0 42 0;
#X connect 42 0 43 0;
#X connect 43 0 38 1;
#X connect 44 0 45 0;
#X connect 45 0 46 0;
#X connect 46 0 47 0;
#X connect 47 0 48 0;
#X connect 48 0 43 0;
#X connect 48 1 49 0;
#X connect 49 0 38 1;
#X connect 50 0 52 0;
#X connect 51 0 50 0;
#X connect 52 0 53 0;
#X connect 54 0 55 0;
#X connect 55 0 52 1;
#X connect 56 0 57 0;
#X connect 57 0 58 0;
#X connect 58 0 59 0;
#X connect 58 1 60 0;
#X connect 58 2 61 0;
#X connect 58 3 62 0;
#X connect 59 0 50 1;
#X connect 60 0 79 1;
#X connect 61 0 80 1;
#X connect 62 0 81 1;
#X connect 63 0 76 0;
#X connect 64 0 65 0;
#X connect 65 0 63 1;
#X connect 66 0 80 0;
#X connect 67 0 68 0;
#X connect 69 0 70 0;
#X connect 70 0 67 1;
#X connect 71 0 81 0;
#X connect 72 0 77 0;
#X connect 73 0 74 0;
#X connect 74 0 72 1;
#X connect 75 0 79 0;
#X connect 79 0 63 0;
#X connect 80 0 67 0;
#X connect 81 0 72 0;
#X connect 82 0 37 0;
