#N canvas 739 646 592 432 10;
#X obj 279 163 phasor~ -5;
#X obj 231 219 +~ 0.5;
#X obj 231 241 cos~;
#X obj 231 263 *~ 0.5;
#X obj 231 285 +~ 0.5;
#X obj 260 308 *~;
#X obj 275 263 *~ 50;
#X obj 417 175 +~ 0.5;
#X obj 417 197 wrap~;
#X obj 373 219 +~ 0.5;
#X obj 373 241 cos~;
#X obj 373 263 *~ 0.5;
#X obj 373 285 +~ 0.5;
#X obj 417 263 *~ 50;
#X obj 373 307 *~;
#X obj 309 338 +~;
#X obj 139 328 +~;
#X obj 85 234 *~;
#X obj 309 360 *~;
#X obj 142 187 expr 1-$f1;
#X floatatom 102 113 5 0 0 2 pitch - -, f 5;
#X obj 278 34 expr pow(2 \, $f1/12);
#X floatatom 278 56 5 0 0 0 - - -, f 5;
#X obj 278 75 expr ($f1 - 1.0) * -20;
#X obj 278 97 pack 0 10;
#X obj 278 119 line~;
#X obj 105 143 hsl 60 15 0 1 0 0 empty empty balance -2 -8 0 10 -262144
-1 -1 0 1;
#X obj 17 301 delwrite~ harmonizer\$0 50;
#X obj 275 285 vd~ harmonizer\$0;
#X obj 417 285 vd~ harmonizer\$0;
#X obj 20 114 inlet~;
#X obj 139 350 outlet~;
#X obj 100 55 inlet;
#X obj 159 27 loadbang;
#X connect 0 0 1 0;
#X connect 0 0 6 0;
#X connect 0 0 7 0;
#X connect 1 0 2 0;
#X connect 2 0 3 0;
#X connect 3 0 4 0;
#X connect 4 0 5 0;
#X connect 5 0 15 0;
#X connect 6 0 28 0;
#X connect 7 0 8 0;
#X connect 8 0 9 0;
#X connect 8 0 13 0;
#X connect 9 0 10 0;
#X connect 10 0 11 0;
#X connect 11 0 12 0;
#X connect 12 0 14 0;
#X connect 13 0 29 0;
#X connect 14 0 15 1;
#X connect 15 0 18 0;
#X connect 16 0 31 0;
#X connect 17 0 16 0;
#X connect 18 0 16 1;
#X connect 19 0 18 1;
#X connect 20 0 21 0;
#X connect 21 0 22 0;
#X connect 22 0 23 0;
#X connect 23 0 24 0;
#X connect 24 0 25 0;
#X connect 25 0 0 0;
#X connect 26 0 19 0;
#X connect 26 0 17 1;
#X connect 28 0 5 1;
#X connect 29 0 14 1;
#X connect 30 0 17 0;
#X connect 30 0 27 0;
#X connect 32 0 20 0;
#X connect 33 0 26 0;
#X connect 33 0 20 0;
#X coords 0 -1 1 1 70 60 2 100 100;
