#N canvas 623 459 450 300 10;
#X obj 104 298 outlet~;
#N canvas 0 22 450 278 (subpatch) 0;
#X array loop\$0 176400 float 2;
#X coords 0 1 176400 -1 100 70 1 0 0;
#X restore 105 115 graph;
#X obj 212 184 soundfiler;
#X floatatom 150 261 5 0 0 0 - - -, f 5;
#X obj 59 114 inlet;
#X obj 104 193 bng 15 250 50 0 empty empty empty 17 7 0 10 -262144
-1 -1;
#X obj 132 193 hsl 70 15 0 1 0 0 empty empty empty -2 -8 0 10 -262144
-1 -1 6900 1;
#X obj 212 46 inlet;
#X obj 104 233 tabplay~ loop\$0;
#X msg 233 142 read -resize \$1 loop\$2;
#X obj 225 105 pack s \$0;
#X obj 104 269 *~ 1;
#X connect 3 0 11 1;
#X connect 4 0 5 0;
#X connect 5 0 8 0;
#X connect 6 0 3 0;
#X connect 7 0 10 0;
#X connect 8 0 11 0;
#X connect 9 0 2 0;
#X connect 10 0 9 0;
#X connect 11 0 0 0;
#X coords 0 -1 1 1 110 110 2 100 100;
