#N canvas 145 79 806 650 10;
#N canvas 0 22 450 278 (subpatch) 0;
#X array \$0-track 352800 float 0;
#X coords 0 1 352799 -1 100 70 1 0 0;
#X restore 205 26 graph;
#X obj 173 202 inlet~;
#X msg 237 225 bang;
#X obj 171 280 tabwrite~ \$0-track;
#X msg 318 221 stop;
#X obj 190 323 bng 15 250 50 0 empty empty rec 17 7 0 10 -262144 -1
-1;
#X obj 168 359 del 1000;
#X obj 234 412 bng 15 250 50 0 empty empty play 17 7 0 10 -262144 -1
-1;
#X msg 293 348 0;
#X msg 328 348 1;
#X obj 293 370 tgl 15 0 empty empty empty 17 7 0 10 -262144 -1 -1 0
1;
#X obj 293 390 gate;
#X obj 293 412 bng 15 250 50 0 empty empty loop_play 17 7 0 10 -262144
-1 -1;
#X obj 366 460 del 1000;
#X obj 234 501 int;
#X msg 234 523 0 \$1;
#X msg 273 523 stop;
#X obj 234 545 tabplay~ \$0-track;
#X obj 234 567 outlet~;
#X floatatom 554 266 5 0 0 0 - - -, f 5;
#X floatatom 644 113 8 0 0 0 - - -, f 8;
#X obj 644 132 / 44100;
#X floatatom 644 154 5 0 0 0 - - -, f 5;
#X obj 644 173 * 1000;
#X floatatom 648 51 5 0 0 0 - - -, f 5;
#X obj 644 91 expr 60/$f1*4*4*44100;
#X obj 642 21 r bpm;
#X obj 591 244 / 2;
#X floatatom 591 266 5 0 0 0 - - -, f 5;
#X obj 628 244 / 4;
#X floatatom 628 266 5 0 0 0 - - -, f 5;
#X obj 665 244 / 8;
#X floatatom 665 266 5 0 0 0 - - -, f 5;
#X obj 702 244 / 16;
#X floatatom 702 266 5 0 0 0 - - -, f 5;
#X obj 309 166 t b b;
#X obj 614 305 f;
#X obj 206 113 bng 15 250 50 0 empty empty 16 0 -8 0 10 -262144 -1
-1;
#X floatatom 614 327 5 0 0 0 - - -, f 5;
#X obj 347 166 t b b;
#X obj 226 113 bng 15 250 50 0 empty empty 8 0 -8 0 10 -262144 -1 -1
;
#X obj 385 166 t b b;
#X obj 246 113 bng 15 250 50 0 empty empty 4 0 -8 0 10 -262144 -1 -1
;
#X obj 423 166 t b b;
#X obj 267 113 bng 15 250 50 0 empty empty 2 0 -8 0 10 -262144 -1 -1
;
#X obj 288 113 bng 15 250 50 0 empty empty 1 0 -8 0 10 -262144 -1 -1
;
#X obj 461 166 t b b;
#X obj 614 346 s time_msec\$0;
#X obj 701 132 s time_samp\$0;
#X obj 236 321 r time_msec\$0;
#X obj 249 479 r time_samp\$0;
#X obj 411 433 r time_msec\$0;
#X obj 550 478 r on_off;
#X obj 489 488 t b b b;
#X obj 340 17 inlet;
#X obj 340 39 sel 0 1 2 3 4;
#X connect 1 0 3 0;
#X connect 2 0 3 0;
#X connect 2 0 8 0;
#X connect 2 0 5 0;
#X connect 4 0 3 0;
#X connect 4 0 9 0;
#X connect 5 0 6 0;
#X connect 5 0 16 0;
#X connect 6 0 7 0;
#X connect 7 0 4 0;
#X connect 7 0 13 0;
#X connect 7 0 14 0;
#X connect 8 0 10 0;
#X connect 9 0 10 0;
#X connect 10 0 11 0;
#X connect 11 0 12 0;
#X connect 12 0 13 0;
#X connect 12 0 14 0;
#X connect 13 0 11 1;
#X connect 14 0 15 0;
#X connect 15 0 17 0;
#X connect 16 0 17 0;
#X connect 17 0 18 0;
#X connect 19 0 36 1;
#X connect 20 0 21 0;
#X connect 20 0 48 0;
#X connect 21 0 22 0;
#X connect 22 0 23 0;
#X connect 23 0 19 0;
#X connect 23 0 27 0;
#X connect 23 0 29 0;
#X connect 23 0 31 0;
#X connect 23 0 33 0;
#X connect 24 0 25 0;
#X connect 25 0 20 0;
#X connect 26 0 24 0;
#X connect 27 0 28 0;
#X connect 28 0 36 1;
#X connect 29 0 30 0;
#X connect 30 0 36 1;
#X connect 31 0 32 0;
#X connect 32 0 36 1;
#X connect 33 0 34 0;
#X connect 34 0 36 1;
#X connect 35 0 36 0;
#X connect 35 0 2 0;
#X connect 35 1 19 0;
#X connect 36 0 38 0;
#X connect 37 0 35 0;
#X connect 38 0 47 0;
#X connect 39 0 36 0;
#X connect 39 0 2 0;
#X connect 39 1 28 0;
#X connect 40 0 39 0;
#X connect 41 0 36 0;
#X connect 41 0 2 0;
#X connect 41 1 30 0;
#X connect 42 0 41 0;
#X connect 43 0 36 0;
#X connect 43 0 2 0;
#X connect 43 1 32 0;
#X connect 44 0 43 0;
#X connect 45 0 46 0;
#X connect 46 0 36 0;
#X connect 46 0 2 0;
#X connect 46 1 34 0;
#X connect 49 0 6 1;
#X connect 50 0 14 1;
#X connect 51 0 13 1;
#X connect 52 0 53 0;
#X connect 53 0 11 1;
#X connect 53 1 10 0;
#X connect 53 2 16 0;
#X connect 54 0 55 0;
#X connect 55 0 37 0;
#X connect 55 1 40 0;
#X connect 55 2 42 0;
#X connect 55 3 44 0;
#X connect 55 4 45 0;
#X coords 0 -1 1 1 110 120 2 200 10;
