#N canvas 205 269 450 300 10;
#X obj 103 102 tgl 15 0 empty empty mute 17 7 0 10 -262144 -1 -1 1
1;
#X obj 55 102 inlet~;
#X obj 55 199 outlet~;
#X obj 55 177 *~;
#X floatatom 103 144 5 0 0 0 - - -, f 5;
#X obj 103 122 expr 1-$f1;
#X obj 103 78 loadbang;
#X obj 103 53 inlet;
#X connect 0 0 5 0;
#X connect 1 0 3 0;
#X connect 3 0 2 0;
#X connect 4 0 3 1;
#X connect 5 0 4 0;
#X connect 6 0 0 0;
#X connect 7 0 0 0;
#X coords 0 -1 1 1 50 19 2 100 100;
