#N canvas 184 419 450 300 10;
#X obj 40 103 env~;
#X obj 155 90 vu 15 120 empty L -1 -8 0 10 -66577 -1 1 0;
#X obj 40 125 - 100;
#X obj 156 37 knob 32 32 0 1 0 0 empty empty empty 0 -8 0 8 3.5192e+06
1 3.51923e+06 1271 1;
#X obj 21 240 outlet~;
#X obj 21 31 inlet~;
#X obj 21 212 hip~ 5;
#X obj 71 212 hip~ 5;
#X obj 90 103 env~;
#X obj 205 90 vu 15 120 empty R -1 -8 0 10 -66577 -1 1 0;
#X obj 90 125 - 100;
#X obj 71 31 inlet~;
#X obj 71 240 outlet~;
#X obj 285 24 r vol;
#X obj 21 69 *~ 0.5;
#X obj 71 69 *~ 0.5;
#X connect 0 0 2 0;
#X connect 2 0 1 0;
#X connect 3 0 14 1;
#X connect 3 0 15 1;
#X connect 5 0 14 0;
#X connect 6 0 4 0;
#X connect 7 0 12 0;
#X connect 8 0 10 0;
#X connect 10 0 9 0;
#X connect 11 0 15 0;
#X connect 13 0 3 0;
#X connect 14 0 0 0;
#X connect 14 0 6 0;
#X connect 15 0 8 0;
#X connect 15 0 7 0;
#X coords 0 -1 1 1 100 190 2 150 30;
