#N canvas 215 254 457 193 10;
#N canvas 0 22 450 278 (subpatch) 0;
#X array scope_\$0 1000 float 0;
#X coords 0 1 999 -1 200 140 1 0 0;
#X restore 204 26 graph;
#X obj 80 78 tgl 15 0 empty empty empty 17 7 0 10 -262144 -1 -1 1 1
;
#X obj 80 35 loadbang;
#X msg 80 57 1;
#X obj 80 98 metro 30;
#X obj 76 141 tabwrite~ scope_\$0;
#X obj 22 34 inlet~;
#X connect 1 0 4 0;
#X connect 2 0 3 0;
#X connect 3 0 1 0;
#X connect 4 0 5 0;
#X connect 6 0 5 0;
#X coords 0 -1 1 1 210 160 2 200 10;
