#N canvas 1022 344 562 389 10;
#X obj 19 113 t b;
#X obj 19 88 inlet;
#X floatatom 104 141 5 0 0 2 Velocity - -, f 5;
#X floatatom 104 178 5 0 0 2 Duration - -, f 5;
#X obj 156 118 vsl 15 128 0 4000 0 0 empty empty Dur 0 -9 0 10 -262144
-1 -1 0 1;
#X obj 195 118 vsl 15 128 0 500 0 0 empty empty D 0 -9 0 10 -262144
-1 -1 0 1;
#X obj 177 118 vsl 15 128 0 500 0 0 empty empty A 0 -9 0 10 -262144
-1 -1 0 1;
#X obj 231 118 vsl 15 128 0 2000 0 0 empty empty R 0 -9 0 10 -262144
-1 -1 0 1;
#X obj 213 118 vsl 15 128 0 100 0 0 empty empty S 0 -9 0 10 -262144
-1 -1 0 1;
#X floatatom 253 151 5 0 0 2 Decay(Time) - -, f 5;
#X floatatom 253 119 5 0 0 2 Attack - -, f 5;
#X floatatom 253 215 5 0 0 2 Release - -, f 5;
#X floatatom 253 183 5 0 0 2 Sustain(Level) - -, f 5;
#X obj 58 70 inlet;
#X obj 7 287 inlet~;
#X obj 36 322 *~;
#X obj 36 345 outlet~;
#X obj 71 289 adsr_vol 100 400 4 100 50 800;
#X obj 154 26 inlet;
#X obj 195 26 inlet;
#X obj 236 26 inlet;
#X obj 277 26 inlet;
#X obj 319 26 inlet;
#X connect 0 0 17 0;
#X connect 1 0 0 0;
#X connect 2 0 17 1;
#X connect 3 0 17 2;
#X connect 4 0 3 0;
#X connect 5 0 9 0;
#X connect 6 0 10 0;
#X connect 7 0 11 0;
#X connect 8 0 12 0;
#X connect 9 0 17 4;
#X connect 10 0 17 3;
#X connect 11 0 17 6;
#X connect 12 0 17 5;
#X connect 13 0 2 0;
#X connect 14 0 15 0;
#X connect 15 0 16 0;
#X connect 17 0 15 1;
#X connect 18 0 4 0;
#X connect 19 0 6 0;
#X connect 20 0 5 0;
#X connect 21 0 8 0;
#X connect 22 0 7 0;
#X coords 0 -1 1 1 240 155 2 100 100;
